<svg width="21" height="25" viewBox="0 0 21 25" fill="none" xmlns="http://www.w3.org/2000/svg">
<path d="M10.1852 24.9999C9.73612 24.8934 9.30557 24.743 8.94446 24.4374C8.35186 23.9351 8.03242 23.3032 8.02316 22.5208C8.02316 22.4513 8.02085 22.3795 8.01622 22.3101C8.01622 22.2962 8.00464 22.2823 7.98381 22.243C7.90511 22.243 7.81483 22.243 7.72224 22.243C5.59029 22.243 3.45835 22.243 1.3264 22.243C0.803254 22.243 0.631958 22.0647 0.682883 21.5416C0.775476 20.5948 1.20603 19.8356 1.98381 19.2846C2.12038 19.1874 2.17362 19.0925 2.17362 18.9235C2.16899 16.5416 2.16899 14.1596 2.16899 11.7777C2.16899 9.06242 3.20835 6.83325 5.31251 5.11797C6.15048 4.4351 7.09955 3.94668 8.14585 3.66427C8.34261 3.61103 8.41899 3.53232 8.40742 3.31473C8.36807 2.55084 8.61344 1.89575 9.24307 1.43047C9.88427 0.953621 10.5996 0.870287 11.3241 1.17816C12.0602 1.49066 12.4884 2.06936 12.5787 2.87955C12.5903 2.9814 12.6019 3.08094 12.6042 3.18279C12.6181 3.63186 12.6204 3.62029 13.0301 3.76381C15.6181 4.67816 17.3634 6.4351 18.2639 9.02538C18.5695 9.90269 18.6783 10.8147 18.6759 11.743C18.6713 14.1018 18.6759 16.4606 18.6713 18.8194C18.6713 18.9976 18.7269 19.0948 18.8773 19.192C19.7847 19.78 20.2755 20.6133 20.3241 21.699C20.3403 22.0578 20.1482 22.2383 19.75 22.2383C17.6019 22.2407 15.4537 22.2383 13.3056 22.2383C13.213 22.2383 13.1204 22.2383 13.007 22.2383C12.9908 22.4351 12.9815 22.618 12.9607 22.8008C12.8357 23.868 12.0208 24.7453 10.9676 24.9513C10.9236 24.9606 10.882 24.9814 10.8403 24.9953C10.6227 24.9999 10.4028 24.9999 10.1852 24.9999ZM3.10881 18.9583C3.23381 18.9583 3.3264 18.9583 3.41899 18.9583C6.04399 18.9583 8.66668 18.9583 11.2917 18.9606C11.4074 18.9606 11.5278 18.9652 11.6389 18.9953C11.8542 19.0508 11.9769 19.2291 11.9699 19.4467C11.963 19.6573 11.8218 19.8379 11.6088 19.8795C11.5116 19.9004 11.4074 19.8958 11.3056 19.8958C8.53242 19.8958 5.76159 19.8958 2.98844 19.8981C2.90279 19.8981 2.80557 19.8842 2.73612 19.9212C2.18751 20.2175 1.83566 20.6712 1.67362 21.2893C7.56714 21.2893 13.4398 21.2893 19.3333 21.2893C19.1458 20.6319 18.7708 20.1481 18.1713 19.8749C17.8449 19.7268 17.7315 19.5092 17.7315 19.162C17.7408 16.6782 17.7315 14.1944 17.7384 11.7129C17.7408 10.4143 17.4676 9.18047 16.8195 8.05547C15.6343 5.99992 13.8727 4.74066 11.5162 4.37029C9.62038 4.07168 7.85418 4.46982 6.28937 5.57168C4.16899 7.06473 3.12038 9.14807 3.11112 11.7407C3.10187 14.0532 3.10881 16.3633 3.10881 18.6758C3.10881 18.7592 3.10881 18.8425 3.10881 18.9583ZM8.98149 22.2522C8.89816 22.9397 9.18288 23.5393 9.72224 23.8448C10.2847 24.1643 10.9468 24.1249 11.4352 23.7383C11.9005 23.3726 12.1458 22.7407 12.007 22.2499C11.007 22.2522 10.0023 22.2522 8.98149 22.2522ZM11.6458 3.32631C11.713 2.79158 11.507 2.33788 11.0903 2.1064C10.6551 1.86334 10.2153 1.88186 9.81251 2.17121C9.42362 2.45131 9.29631 2.84945 9.35186 3.32631C10.125 3.32631 10.8796 3.32631 11.6458 3.32631Z" fill="black"/>
</svg>
