<svg width="100" height="87" viewBox="0 0 100 87" fill="none" xmlns="http://www.w3.org/2000/svg">
<path fill-rule="evenodd" clip-rule="evenodd" d="M83.3333 7.00016L16.6666 7.0003C11.1438 7.0003 6.66666 11.4774 6.66666 17.0003V50.3336C6.66666 55.8562 11.1438 60.3335 16.6667 60.3335H50.0001C50.8842 60.3335 51.7321 60.6848 52.3572 61.3102L66.6666 75.6195V63.6668C66.6666 61.8262 68.1593 60.3335 70 60.3335H83.3333C88.856 60.3335 93.3333 55.8562 93.3333 50.3336V17.0002C93.3333 11.4773 88.856 7.00016 83.3333 7.00016ZM16.6666 0.33363L83.3333 0.333496C92.538 0.333496 100 7.79536 100 17.0002V50.3336C100 59.5382 92.538 67.0002 83.3333 67.0002H73.3333V83.6668C73.3333 85.0148 72.5213 86.2302 71.2753 86.7462C70.03 87.2622 68.596 86.9768 67.6427 86.0235L48.6195 67.0002H16.6667C7.46193 67.0002 0 59.5382 0 50.3336V17.0003C0 7.79556 7.46187 0.33363 16.6666 0.33363Z" fill="#1F2124"/>
</svg>
