<svg width="19" height="19" viewBox="0 0 19 19" fill="none" xmlns="http://www.w3.org/2000/svg">
<path d="M9.5 0.125C7.6458 0.125 5.83324 0.674834 4.29153 1.70497C2.74982 2.73511 1.54821 4.19929 0.838634 5.91234C0.129062 7.6254 -0.0565942 9.5104 0.305142 11.329C0.666879 13.1475 1.55976 14.818 2.87088 16.1291C4.182 17.4402 5.85246 18.3331 7.67103 18.6949C9.4896 19.0566 11.3746 18.8709 13.0877 18.1614C14.8007 17.4518 16.2649 16.2502 17.295 14.7085C18.3252 13.1668 18.875 11.3542 18.875 9.5C18.875 7.0136 17.8873 4.62903 16.1291 2.87087C14.371 1.11272 11.9864 0.125 9.5 0.125ZM9.5 12.4297C8.982 12.4297 8.48522 12.2239 8.11894 11.8576C7.75265 11.4913 7.54688 10.9946 7.54688 10.4766C7.54856 10.1324 7.64303 9.79502 7.82032 9.5L9.5 6.57031L11.1797 9.5C11.357 9.79502 11.4514 10.1324 11.4531 10.4766C11.4531 10.9946 11.2474 11.4913 10.8811 11.8576C10.5148 12.2239 10.018 12.4297 9.5 12.4297Z" fill="#FFE814"/>
</svg>
