<svg width="25" height="24" viewBox="0 0 25 24" fill="none" xmlns="http://www.w3.org/2000/svg">
<path d="M16.2085 0.405029H8.79183C4.47238 0.405029 0.958496 3.91892 0.958496 8.23836V11.2222C0.958496 13.5138 1.94461 15.6573 3.67146 17.1504L2.80572 23.5948L10.4863 19.0555H16.2108C20.5303 19.0555 24.0441 15.5416 24.0441 11.2222V8.23836C24.0418 3.91892 20.5279 0.405029 16.2085 0.405029ZM23.0303 11.2222C23.0303 14.9837 19.9701 18.0439 16.2085 18.0439H10.2085L4.08581 21.6597L4.75016 16.7222L4.52794 16.5439C2.90294 15.2407 1.97007 13.3009 1.97007 11.2222V8.23836C1.97007 4.47679 5.03025 1.41892 8.79183 1.41892H16.2108C19.9724 1.41892 23.0326 4.4791 23.0326 8.24068V11.2222H23.0303Z" fill="black"/>
</svg>
